<svg width="48" height="48" viewBox="0 0 48 48" fill="none" xmlns="http://www.w3.org/2000/svg">
<path fill-rule="evenodd" clip-rule="evenodd" d="M5.07629 14.2256C6.05568 13.7155 7.26319 14.0959 7.77334 15.0753C8.26278 16.0149 9.0327 16.9433 10.0878 17.8098C13.0916 20.2688 18.1234 22.0005 24 22.0005C29.8797 22.0005 34.9124 20.2657 37.9134 17.8088L37.9375 17.7894C38.8829 17.0395 39.667 16.1061 40.2425 15.0454C40.7692 14.0748 41.9829 13.7149 42.9536 14.2415C43.9242 14.7682 44.2841 15.9819 43.7575 16.9526C42.9273 18.4826 41.7972 19.8295 40.4347 20.9129C40.3078 21.0166 40.1787 21.1189 40.0473 21.2199L44.4245 25.5948C45.2055 26.3754 45.2059 27.6414 44.4252 28.4225C43.6446 29.2035 42.3786 29.2039 41.5975 28.4232L36.5273 23.3557C34.9539 24.1071 33.2151 24.7142 31.3597 25.1562L32.9814 31.2107C33.2671 32.2773 32.634 33.3737 31.5673 33.6594C30.5007 33.9451 29.4043 33.312 29.1186 32.2453L27.399 25.8254C26.289 25.9403 25.1532 25.9995 24 25.9995C22.8398 25.9995 21.6972 25.9396 20.5806 25.8234L18.8604 32.2453C18.5747 33.312 17.4783 33.9451 16.4117 33.6594C15.345 33.3737 14.7119 32.2773 14.9976 31.2107L16.6205 25.1518C14.7752 24.7109 13.0452 24.1066 11.4787 23.359L6.41486 28.4229C5.634 29.2037 4.36799 29.2037 3.58714 28.4229C2.80628 27.642 2.80628 26.376 3.58714 25.5951L7.95814 21.2241C7.82075 21.1186 7.68577 21.0116 7.55325 20.903L7.55116 20.9013C6.15878 19.7581 5.00905 18.4248 4.22665 16.9227C3.7165 15.9433 4.09689 14.7358 5.07629 14.2256Z" fill="#1D2129" fill-opacity="0.8"/>
</svg>
