<svg width="48" height="48" viewBox="0 0 48 48" fill="none" xmlns="http://www.w3.org/2000/svg">
<path fill-rule="evenodd" clip-rule="evenodd" d="M5.07626 14.2257C6.05565 13.7156 7.26316 14.096 7.77331 15.0753C8.26275 16.015 9.03267 16.9434 10.0877 17.8099C13.0915 20.2689 18.1234 22.0006 24 22.0006C29.8797 22.0006 34.9123 20.2657 37.9134 17.8089L37.9374 17.7895C38.8829 17.0396 39.667 16.1062 40.2425 15.0455C40.7691 14.0749 41.9829 13.7149 42.9535 14.2416C43.9242 14.7682 44.2841 15.982 43.7574 16.9526C42.9273 18.4827 41.7972 19.8296 40.4347 20.9129C40.3078 21.0166 40.1786 21.119 40.0473 21.22L44.4245 25.5948C45.2055 26.3755 45.2058 27.6415 44.4252 28.4225C43.6446 29.2036 42.3785 29.2039 41.5975 28.4233L36.5273 23.3558C34.9539 24.1072 33.2151 24.7142 31.3596 25.1562L32.9814 31.2107C33.2671 32.2774 32.634 33.3737 31.5673 33.6595C30.5006 33.9452 29.4043 33.3121 29.1186 32.2454L27.3989 25.8255C26.2889 25.9403 25.1531 25.9996 24 25.9996C22.8398 25.9996 21.6971 25.9396 20.5806 25.8234L18.8604 32.2454C18.5747 33.3121 17.4783 33.9452 16.4116 33.6595C15.3449 33.3737 14.7118 32.2774 14.9976 31.2107L16.6205 25.1518C14.7752 24.711 13.0452 24.1067 11.4786 23.3591L6.41482 28.4229C5.63397 29.2038 4.36796 29.2038 3.5871 28.4229C2.80625 27.6421 2.80625 26.376 3.5871 25.5952L7.95811 21.2242C7.82072 21.1187 7.68574 21.0116 7.55322 20.9031L7.55113 20.9014C6.15875 19.7581 5.00902 18.4248 4.22662 16.9228C3.71647 15.9434 4.09686 14.7359 5.07626 14.2257Z" fill="#1D2129" fill-opacity="0.8"/>
</svg>
