<svg width="48" height="48" viewBox="0 0 48 48" fill="none" xmlns="http://www.w3.org/2000/svg">
<path fill-rule="evenodd" clip-rule="evenodd" d="M24.0089 4.74902C25.2515 4.74902 26.2589 5.75638 26.2589 6.99902V10.8757C28.3988 11.116 30.4286 11.6863 32.298 12.4886L33.796 10.3984C34.5199 9.38833 35.9255 9.15632 36.9355 9.88017C37.9456 10.604 38.1776 12.0096 37.4537 13.0197L36.2643 14.6794C36.9442 15.1473 37.5881 15.6438 38.1921 16.1612C41.6948 19.1618 44.25 23.2304 44.25 27C44.25 30.7697 41.6948 34.8382 38.1921 37.8389C34.6011 40.9151 29.598 43.251 24 43.251C18.4013 43.251 13.3981 40.9123 9.8076 37.8352C6.30569 34.834 3.75 30.7656 3.75 27C3.75 23.2345 6.30569 19.166 9.8076 16.1648C10.6497 15.4431 11.5696 14.762 12.5566 14.1422L11.434 12.5757C10.7102 11.5656 10.9422 10.16 11.9522 9.43617C12.9623 8.71232 14.3679 8.94433 15.0917 9.95437L16.6384 12.1126C18.2482 11.5061 19.9649 11.0739 21.7589 10.8739V6.99902C21.7589 5.75638 22.7662 4.74902 24.0089 4.74902ZM12.7359 19.5817C9.72331 22.1635 8.25 25.0956 8.25 27C8.25 28.9045 9.72331 31.8365 12.7359 34.4183C15.6599 36.9242 19.6567 38.751 24 38.751C28.344 38.751 32.3409 36.926 35.2644 34.4214C38.2762 31.8413 39.75 28.9094 39.75 27C39.75 25.0907 38.2762 22.1587 35.2644 19.5786C32.3409 17.0741 28.344 15.249 24 15.249C19.6567 15.249 15.6599 17.0758 12.7359 19.5817ZM24 18.75C21.812 18.75 19.7135 19.6192 18.1664 21.1664C16.6192 22.7135 15.75 24.812 15.75 27C15.75 29.188 16.6192 31.2865 18.1664 32.8336C19.7135 34.3808 21.812 35.25 24 35.25C26.188 35.25 28.2865 34.3808 29.8336 32.8336C31.3808 31.2865 32.25 29.188 32.25 27C32.25 24.812 31.3808 22.7135 29.8336 21.1664C28.2865 19.6192 26.188 18.75 24 18.75ZM21.3484 24.3484C22.0516 23.6451 23.0054 23.25 24 23.25C24.9946 23.25 25.9484 23.6451 26.6516 24.3484C27.3549 25.0516 27.75 26.0054 27.75 27C27.75 27.9946 27.3549 28.9484 26.6516 29.6516C25.9484 30.3549 24.9946 30.75 24 30.75C23.0054 30.75 22.0516 30.3549 21.3484 29.6516C20.6451 28.9484 20.25 27.9946 20.25 27C20.25 26.0054 20.6451 25.0516 21.3484 24.3484Z" fill="#1D2129" fill-opacity="0.8"/>
</svg>
